<?xml version="1.0" standalone="no"?>
<!DOCTYPE svg PUBLIC "-//W3C//DTD SVG 20010904//EN"
 "http://www.w3.org/TR/2001/REC-SVG-20010904/DTD/svg10.dtd">
<svg version="1.0" xmlns="http://www.w3.org/2000/svg"
 width="260.000000pt" height="260.000000pt" viewBox="0 0 260.000000 260.000000"
 preserveAspectRatio="xMidYMid meet">
<metadata>
Created by potrace 1.14, written by Peter Selinger 2001-2017
</metadata>
<g transform="translate(0.000000,260.000000) scale(0.100000,-0.100000)"
fill="#000000" stroke="none">
<path d="M254 2132 c5 -8 -1 -12 -17 -12 -14 0 -27 -7 -31 -15 -3 -8 -10 -15
-16 -15 -6 0 -8 6 -4 13 4 7 3 9 -2 4 -5 -5 -10 -13 -10 -18 -1 -5 -2 -14 -3
-20 0 -5 -5 -8 -10 -5 -5 3 -11 -3 -14 -14 -3 -11 -10 -20 -17 -20 -6 0 -8 5
-4 12 4 7 3 8 -4 4 -6 -4 -9 -13 -5 -21 3 -10 -1 -15 -12 -15 -9 0 -13 -5 -9
-11 4 -8 -1 -9 -17 -4 -18 5 -20 4 -9 -4 13 -9 13 -12 -1 -26 -9 -9 -25 -17
-37 -18 -11 0 -18 -5 -16 -9 3 -5 10 -6 15 -2 6 3 5 -3 -2 -14 -7 -12 -17 -18
-22 -15 -5 3 -5 -3 1 -13 5 -11 7 -25 5 -31 -3 -7 2 -13 11 -13 18 0 39 -34
28 -45 -4 -5 -1 -5 6 -1 6 4 12 2 12 -4 0 -6 5 -8 10 -5 5 3 10 3 10 -2 0 -15
47 -63 54 -55 4 4 7 3 6 -3 -4 -18 0 -38 6 -32 9 9 74 -54 74 -71 0 -9 3 -13
6 -9 3 3 17 -4 30 -16 18 -15 21 -23 12 -29 -9 -5 -8 -8 4 -8 20 0 82 -56 91
-82 4 -10 13 -18 22 -18 13 0 19 -12 16 -32 0 -4 7 -4 16 -1 10 4 14 2 10 -4
-4 -6 2 -13 14 -16 13 -3 19 -12 17 -24 -2 -9 3 -18 10 -19 6 -1 17 -2 23 -3
6 0 9 -10 6 -21 -3 -11 -1 -18 4 -15 14 9 68 -36 62 -52 -3 -7 -2 -13 3 -11 5
2 20 -5 34 -15 13 -9 20 -17 15 -17 -6 0 -2 -5 8 -11 9 -5 17 -18 17 -27 0
-15 2 -15 10 -2 9 13 10 13 10 0 0 -8 9 -21 20 -28 11 -7 20 -20 20 -29 0 -9
3 -13 7 -10 9 10 53 -33 53 -52 0 -12 2 -13 8 -4 5 7 21 11 40 9 18 -3 32 0
32 5 0 5 7 9 16 9 9 0 12 -5 8 -12 -4 -7 -3 -8 4 -4 6 4 8 14 5 23 -5 13 -2
15 11 10 11 -4 15 -3 10 4 -3 6 5 21 20 34 14 12 22 26 18 31 -4 4 2 2 12 -6
15 -11 18 -12 12 -2 -10 16 62 95 77 85 6 -3 7 -2 4 3 -3 6 -1 16 4 24 8 13
10 13 20 0 9 -12 10 -13 7 0 -5 18 22 51 35 43 6 -3 7 -1 3 5 -4 7 -4 17 0 23
4 8 9 7 15 -2 7 -12 9 -11 9 1 0 8 12 25 28 38 15 13 20 20 12 16 -9 -4 -6 2
5 13 18 18 21 18 27 4 5 -11 7 -8 7 12 1 15 6 27 12 27 5 0 7 -5 3 -12 -4 -7
-3 -8 5 -4 6 4 9 12 6 17 -9 14 82 102 96 93 7 -4 9 -3 6 3 -10 16 38 67 53
58 9 -5 11 -4 6 3 -4 7 -2 12 5 12 7 0 10 3 6 6 -8 8 25 44 35 38 4 -3 8 0 8
5 0 20 4 26 27 44 12 10 27 16 33 12 6 -3 7 0 4 9 -3 9 -1 16 5 16 6 0 11 7
11 16 0 11 6 15 19 11 14 -3 17 0 14 13 -3 10 0 21 6 24 7 5 9 0 5 -11 -3 -10
2 -4 12 12 9 17 22 33 28 37 8 5 7 11 -2 20 -6 6 -12 20 -12 30 0 10 -6 17
-12 15 -7 -1 -12 4 -10 11 1 8 -2 11 -7 8 -5 -4 -16 1 -23 9 -7 9 -25 28 -40
44 -17 18 -23 32 -17 38 6 6 2 9 -13 9 -17 -1 -22 4 -20 18 2 10 -1 15 -7 12
-5 -4 -20 4 -33 16 -26 26 -48 29 -64 9 -6 -8 -16 -11 -23 -7 -7 5 -10 2 -9
-6 2 -7 -2 -12 -9 -11 -8 2 -10 -4 -6 -14 4 -10 2 -14 -4 -10 -6 4 -14 0 -17
-9 -3 -8 -11 -12 -17 -8 -8 4 -9 3 -5 -4 4 -7 2 -12 -4 -12 -6 0 -8 -5 -4 -12
5 -7 2 -9 -9 -5 -11 4 -14 2 -10 -9 3 -7 1 -14 -3 -15 -25 -2 -47 -8 -52 -15
-4 -4 1 -4 11 -1 9 4 17 2 17 -3 0 -13 -36 -31 -45 -22 -5 4 -5 1 -1 -6 8 -14
-31 -62 -51 -62 -7 0 -12 -3 -10 -8 4 -14 -41 -54 -54 -47 -8 6 -10 4 -4 -4 9
-16 -63 -93 -79 -84 -6 3 -8 2 -3 -2 9 -11 -31 -55 -50 -55 -8 0 -12 -4 -9 -9
3 -4 -2 -17 -10 -27 -9 -10 -12 -12 -8 -4 7 13 6 13 -9 1 -10 -8 -15 -16 -12
-19 6 -7 -35 -36 -56 -39 -25 -4 -84 51 -74 68 7 12 6 12 -7 1 -13 -10 -18
-10 -24 -1 -5 8 -3 10 7 4 8 -4 4 2 -8 14 -12 11 -28 21 -34 21 -7 0 -10 3 -6
6 3 3 -42 51 -99 107 -57 55 -104 107 -104 116 0 8 -3 11 -6 8 -9 -9 -79 63
-79 82 0 10 -7 15 -18 13 -9 -2 -17 2 -17 8 0 14 -25 40 -38 40 -10 0 -26 29
-24 42 1 4 -6 4 -15 1 -10 -4 -14 -2 -9 5 3 6 1 14 -5 18 -8 4 -9 3 -5 -4z"/>
<path d="M2344 2123 c6 -6 -32 -43 -44 -43 -5 0 -10 -5 -10 -11 0 -5 -4 -7
-10 -4 -5 3 -10 -3 -10 -14 0 -12 -6 -21 -13 -21 -7 0 -23 -14 -36 -30 -12
-17 -27 -28 -33 -24 -6 4 -8 3 -4 -4 3 -6 -2 -15 -11 -21 -10 -6 -15 -11 -10
-11 8 0 -30 -40 -39 -40 -3 0 -2 5 2 12 5 7 3 8 -5 4 -7 -5 -10 -14 -7 -22 3
-8 -1 -14 -10 -14 -8 0 -12 -4 -9 -10 6 -9 -8 -14 -27 -11 -5 0 -7 -4 -5 -11
1 -7 -3 -12 -10 -13 -6 0 -15 -4 -20 -9 -5 -5 -3 -6 5 -2 6 4 12 4 12 1 0 -10
-30 -38 -30 -28 0 4 -6 -3 -13 -17 -7 -13 -23 -27 -37 -31 -14 -4 -20 -7 -13
-8 7 -1 -9 -23 -35 -51 -32 -34 -49 -45 -54 -37 -5 8 -8 5 -8 -9 0 -12 -11
-29 -25 -38 -14 -9 -23 -21 -20 -26 6 -9 -17 -15 -39 -11 -5 1 -3 -6 4 -16 8
-10 10 -15 6 -11 -5 5 -16 -1 -23 -12 -8 -11 -19 -17 -25 -14 -7 4 -8 2 -4 -4
4 -6 -2 -17 -14 -24 -11 -7 -20 -18 -20 -25 0 -7 -5 -13 -11 -13 -5 0 -7 4 -4
10 4 6 -1 7 -11 3 -12 -4 -14 -8 -6 -11 10 -3 10 -7 1 -18 -9 -12 -15 -12 -28
-2 -14 11 -14 11 -4 -2 8 -10 9 -21 3 -30 -6 -8 -10 -11 -10 -6 0 6 -6 2 -13
-9 -8 -10 -19 -15 -25 -11 -7 4 -10 -1 -7 -14 4 -23 -5 -26 -25 -7 -12 10 -12
9 -1 -5 14 -19 7 -38 -15 -38 -8 0 -12 -4 -9 -10 6 -9 -7 -14 -27 -11 -4 0 -4
-7 -1 -16 4 -11 3 -14 -5 -9 -7 4 -12 2 -12 -4 0 -7 -25 -36 -55 -67 -49 -48
-58 -53 -73 -41 -15 12 -16 11 -4 -4 12 -15 10 -21 -11 -42 -14 -14 -28 -22
-31 -19 -3 4 -6 -1 -6 -11 0 -9 -11 -21 -25 -26 -14 -5 -25 -12 -25 -15 0 -4
6 -3 13 1 6 4 -3 -7 -20 -24 -18 -17 -33 -36 -33 -42 0 -6 -5 -8 -10 -5 -6 4
-7 11 -4 17 4 7 2 8 -4 4 -6 -4 -9 -13 -6 -21 3 -8 -5 -21 -20 -30 -14 -9 -28
-25 -31 -36 -4 -10 -18 -22 -32 -25 -16 -5 -21 -9 -13 -14 9 -6 6 -10 -9 -15
-12 -3 -19 -11 -16 -16 4 -5 2 -9 -3 -9 -14 0 -10 -29 5 -34 7 -3 13 -13 13
-21 0 -9 5 -13 10 -10 6 3 10 -3 10 -14 0 -11 5 -23 12 -27 7 -5 8 -3 3 7 -5
8 28 -23 73 -68 60 -60 90 -83 108 -83 13 0 27 7 30 15 4 8 10 15 16 15 5 0 6
-5 2 -12 -4 -7 -3 -8 5 -4 6 4 9 11 7 15 -7 11 40 62 61 65 11 2 17 10 15 21
-2 10 1 14 7 10 6 -3 11 -2 11 4 0 18 63 82 76 77 15 -6 38 19 30 33 -7 10 32
37 47 33 5 -1 6 2 2 8 -9 14 41 64 54 55 6 -3 8 0 5 8 -3 8 2 20 11 27 12 10
18 10 33 -1 14 -11 15 -11 5 1 -18 19 -16 33 3 26 8 -3 13 -2 9 3 -7 13 5 42
16 35 5 -3 9 3 10 13 0 10 3 13 6 6 2 -7 9 -13 14 -13 6 0 8 4 5 9 -3 5 3 20
15 32 11 13 17 18 13 10 -4 -9 -3 -12 4 -7 6 4 8 14 5 23 -4 11 -3 14 5 9 7
-4 12 -3 12 1 0 10 41 53 69 73 11 8 21 20 21 27 0 7 6 12 13 10 6 -1 11 4 10
11 -2 6 3 12 11 12 7 0 20 8 27 18 13 16 12 16 -6 3 l-20 -15 20 22 c11 12 30
23 42 25 12 2 25 6 29 10 4 3 -3 4 -16 2 -22 -4 -22 -4 -4 16 10 11 24 17 31
15 7 -3 15 0 19 6 4 7 3 8 -4 4 -18 -11 -14 10 5 25 15 12 16 12 8 -1 -5 -9 0
-8 13 4 24 21 29 31 10 20 -9 -5 -8 -2 1 10 8 9 20 15 28 12 8 -3 11 -1 8 4
-7 12 20 42 29 33 3 -4 6 0 6 8 0 19 47 62 60 54 5 -3 8 0 5 7 -7 17 122 141
137 132 6 -4 8 -3 4 4 -3 6 3 14 15 17 11 4 18 9 16 12 -3 2 -16 -1 -29 -7
-15 -7 -11 -1 12 19 19 16 38 27 43 24 4 -2 7 -1 6 4 -3 20 2 34 11 28 6 -4 7
-11 4 -17 -4 -7 -2 -8 4 -4 6 4 8 14 5 23 -4 11 -3 14 5 9 8 -5 10 -2 6 8 -6
15 6 21 29 17 5 -1 7 4 5 11 -3 7 10 27 29 45 18 18 33 36 33 38 0 3 0 6 1 8
6 18 6 36 0 33 -11 -7 -63 52 -57 63 4 5 1 13 -5 17 -8 5 -9 3 -4 -6 5 -8 3
-11 -6 -8 -8 3 -13 13 -11 22 2 9 -1 16 -5 15 -21 -4 -33 2 -33 17 0 8 -4 13
-9 9 -11 -6 -42 35 -35 47 3 4 -1 5 -9 2 -8 -3 -18 0 -23 7 -5 8 -3 10 6 4 9
-5 11 -4 6 3 -4 7 -16 12 -27 12 -11 0 -18 4 -15 8 3 5 -1 9 -9 9 -8 0 -13 -2
-11 -4z m-784 -1327 c0 -3 -4 -8 -10 -11 -5 -3 -10 -1 -10 4 0 6 5 11 10 11 6
0 10 -2 10 -4z"/>
<path d="M395 2000 c-3 -5 -1 -10 4 -10 6 0 11 5 11 10 0 6 -2 10 -4 10 -3 0
-8 -4 -11 -10z"/>
<path d="M1553 1996 c1 -11 9 -21 17 -23 10 -3 11 -2 4 4 -6 4 -14 15 -17 23
-5 11 -6 9 -4 -4z"/>
<path d="M425 1960 c3 -5 11 -10 16 -10 6 0 7 5 4 10 -3 6 -11 10 -16 10 -6 0
-7 -4 -4 -10z"/>
<path d="M2550 1959 c0 -5 5 -7 10 -4 6 3 10 8 10 11 0 2 -4 4 -10 4 -5 0 -10
-5 -10 -11z"/>
<path d="M549 1838 c13 -15 28 -25 32 -22 13 8 11 14 -3 12 -7 -2 -11 4 -10
12 2 8 0 12 -4 8 -4 -4 -14 -2 -23 4 -9 7 -5 0 8 -14z"/>
<path d="M997 1779 c7 -7 15 -10 18 -7 3 3 -2 9 -12 12 -14 6 -15 5 -6 -5z"/>
<path d="M1550 1780 c0 -5 5 -10 11 -10 5 0 7 5 4 10 -3 6 -8 10 -11 10 -2 0
-4 -4 -4 -10z"/>
<path d="M839 1603 c-13 -16 -12 -17 4 -4 9 7 17 15 17 17 0 8 -8 3 -21 -13z"/>
<path d="M596 1247 c3 -10 9 -15 12 -12 3 3 0 11 -7 18 -10 9 -11 8 -5 -6z"/>
<path d="M1015 1240 c-3 -6 1 -7 9 -4 18 7 21 14 7 14 -6 0 -13 -4 -16 -10z"/>
<path d="M736 1102 c-3 -5 1 -9 9 -9 8 0 12 4 9 9 -3 4 -7 8 -9 8 -2 0 -6 -4
-9 -8z"/>
<path d="M309 1034 c-7 -8 -18 -13 -26 -10 -8 3 -12 2 -9 -3 7 -11 -19 -33
-28 -24 -4 4 -4 0 0 -10 4 -12 1 -17 -10 -17 -9 0 -19 -8 -23 -17 -4 -10 -30
-41 -60 -69 -29 -29 -53 -56 -54 -60 0 -5 -2 -17 -4 -26 -2 -9 4 -19 12 -22 8
-4 13 -13 10 -21 -4 -10 -1 -12 10 -8 12 5 14 1 8 -18 -4 -15 -3 -19 2 -12 12
17 56 -13 49 -34 -3 -8 -2 -12 2 -9 5 3 16 -3 25 -12 8 -9 23 -23 31 -30 8 -6
13 -20 10 -30 -5 -14 -4 -15 5 -2 10 13 15 8 12 -12 0 -4 7 -4 16 -1 12 5 15
2 11 -9 -5 -13 -1 -14 27 -8 19 4 36 5 39 2 4 -3 6 3 6 12 0 12 5 16 16 12 9
-3 12 -2 9 4 -4 6 11 28 31 50 39 41 61 52 50 24 -3 -9 -2 -12 5 -9 6 4 8 14
5 22 -7 17 57 87 68 75 4 -3 4 1 1 10 -4 9 -1 19 4 23 8 4 5 16 -9 34 -10 16
-16 31 -13 35 4 4 0 4 -10 0 -13 -4 -17 -1 -17 14 0 12 -5 24 -12 28 -7 5 -9
2 -3 -7 4 -8 -9 3 -29 23 -20 20 -36 41 -36 47 0 5 -5 13 -12 17 -7 5 -9 2 -4
-7 4 -8 -5 0 -22 16 -45 46 -68 57 -83 39z"/>
<path d="M2263 1036 c-13 -6 -23 -14 -23 -18 0 -5 -7 -8 -17 -8 -9 0 -14 -3
-10 -6 10 -10 -26 -44 -48 -45 -11 0 -14 -3 -7 -6 10 -4 10 -8 1 -19 -6 -8
-16 -11 -23 -7 -6 3 -8 3 -4 -2 8 -9 -15 -35 -32 -35 -6 0 -8 -4 -5 -10 3 -5
-1 -10 -9 -10 -9 0 -15 -5 -13 -12 1 -6 -9 -17 -23 -25 -14 -7 -19 -13 -11
-13 9 0 12 -8 9 -25 -3 -13 -2 -22 2 -20 13 8 43 -34 36 -51 -5 -13 -4 -14 7
-6 10 8 20 4 41 -18 15 -17 24 -35 20 -41 -4 -7 -3 -9 3 -6 5 3 20 -1 32 -10
18 -12 20 -17 10 -24 -11 -7 -9 -9 6 -9 11 0 27 -9 35 -20 8 -11 25 -20 38
-20 14 0 21 -4 16 -11 -4 -8 0 -8 15 0 25 14 28 23 4 14 -10 -4 7 18 37 49 30
30 58 53 63 51 4 -2 7 1 7 8 0 7 26 37 58 68 31 30 51 52 45 47 -12 -7 -19 20
-13 49 1 5 -1 7 -5 3 -9 -8 -45 23 -39 34 3 4 0 8 -6 8 -6 0 -8 5 -4 12 5 7 3
8 -5 3 -8 -4 -35 16 -75 56 -82 85 -86 87 -113 75z"/>
<path d="M2350 1004 c0 -20 27 -37 36 -23 4 7 3 9 -4 5 -6 -3 -15 2 -21 11 -6
10 -11 13 -11 7z"/>
<path d="M1120 900 c-9 -6 -10 -10 -3 -10 6 0 15 5 18 10 8 12 4 12 -15 0z"/>
<path d="M1487 731 c-10 -14 -10 -14 4 -4 9 7 18 10 21 7 3 -3 8 -1 12 4 9 16
-24 9 -37 -7z"/>
<path d="M150 706 c0 -2 7 -7 16 -10 8 -3 12 -2 9 4 -6 10 -25 14 -25 6z"/>
</g>
</svg>
